<svg width="91" height="108" viewBox="0 0 91 108" fill="none" xmlns="http://www.w3.org/2000/svg">
<path d="M10.0807 22.2234C-1.67221 39.2478 -2.66225 62.8685 7.59306 80.9048C26.9425 114.941 69.6301 112.598 85.3321 91.6164C90.4201 84.8128 86.9681 74.5342 79.3508 71.4868C70.0333 67.7536 67.7911 54.928 75.1348 47.7268L86.6111 36.473C91.7661 31.418 92.0359 22.7626 87.3392 17.248C66.4697 -6.96341 29.4574 -5.82033 10.0807 22.2234ZM36.0547 86.0487C33.506 88.548 29.5598 88.3639 27.2241 85.6368C24.8883 82.9097 25.0603 78.6873 27.609 76.188C30.1577 73.6888 34.1039 73.8728 36.4397 76.5999C38.7755 79.3271 38.6034 83.5495 36.0547 86.0487ZM23.7712 61.8088C21.2225 64.3081 17.2763 64.124 14.9405 61.3969C12.6048 58.6698 12.7768 54.4474 15.3255 51.9481C17.8742 49.4489 21.8204 49.6329 24.1562 52.36C26.4919 55.0872 26.3199 59.3096 23.7712 61.8088ZM33.7568 33.8744C31.2081 36.3736 27.2619 36.1895 24.9261 33.4624C22.5904 30.7353 22.7624 26.5129 25.3111 24.0136C27.8598 21.5144 31.806 21.6985 34.1418 24.4256C36.4775 27.1527 36.3055 31.3751 33.7568 33.8744ZM60.6337 25.6614C58.085 28.1606 54.1388 27.9765 51.8031 25.2494C49.4673 22.5223 49.6394 18.2999 52.1881 15.8006C54.7368 13.3014 58.683 13.4854 61.0187 16.2126C63.3545 18.9397 63.1824 23.1621 60.6337 25.6614Z" fill="url(#paint0_linear_105_12)"/>
<defs>
<linearGradient id="paint0_linear_105_12" x1="15.91" y1="64.6775" x2="76.9133" y2="91.7275" gradientUnits="userSpaceOnUse">
<stop stop-color="#FF0000"/>
<stop offset="0.154167" stop-color="#FFC700"/>
<stop offset="0.310417" stop-color="#FFF500"/>
<stop offset="0.466667" stop-color="#00FF29"/>
<stop offset="0.617708" stop-color="#00FFF0"/>
<stop offset="0.779167" stop-color="#0057FF"/>
<stop offset="0.925" stop-color="#EB00FF"/>
</linearGradient>
</defs>
</svg>
