<svg width="1440" height="228" viewBox="0 0 1440 228" fill="none" xmlns="http://www.w3.org/2000/svg">
<path id="Vector 6" d="M1440 0H0V84C0 84 24.6857 79.2799 39.834 74C72.0984 62.7543 83.0769 40.7187 115.519 30C199.204 2.35055 247.449 96.9025 334.606 84C378.655 77.479 398.31 53.7717 442.158 46C565.714 24.1005 624.701 160.004 748.88 142C800.002 134.588 822.853 103.93 874.357 100C973.345 92.4475 1009.55 218.932 1107.39 202C1158.8 193.101 1175.37 150.307 1226.89 142C1315.45 127.72 1440 228 1440 228V0Z" fill="#9B5DE5"/>
</svg>
