<svg width="1436" height="228" viewBox="0 0 1436 228" fill="none" xmlns="http://www.w3.org/2000/svg">
<g id="curve">
<path id="Vector 6" d="M1436 0H-4V84C-4 84 20.6857 79.2799 35.834 74C68.0984 62.7543 79.0769 40.7187 111.519 30C195.204 2.35055 243.449 96.9025 330.606 84C374.655 77.479 394.31 53.7717 438.158 46C561.714 24.1005 620.701 160.004 744.88 142C796.002 134.588 818.853 103.93 870.357 100C969.345 92.4475 1005.55 218.932 1103.39 202C1154.8 193.101 1171.37 150.307 1222.89 142C1311.45 127.72 1436 228 1436 228V0Z" fill="#171742"/>
<path id="Vector 8" d="M332.5 85.8217C401.894 70.8217 396.31 55.0934 440.158 47.3217C484.006 39.5499 498 47.5 524 55.5C524 55.5 482.594 34.6267 432 23.3216C377.29 11.0968 311.427 7.12064 293 0C238.723 -20.9737 137.5 -2.86102e-06 137.5 -2.86102e-06L68 9.53674e-07L-2 1.32162V85.3217C-2 85.3217 22.6858 80.6016 37.8341 75.3217C70.0985 64.0759 81.5582 43.0404 114 32.3217C197.685 4.6722 246.383 104.436 332.5 85.8217Z" fill="#10061C"/>
</g>
</svg>
