<svg width="1440" height="228" viewBox="0 0 1440 228" fill="none" xmlns="http://www.w3.org/2000/svg">
<g id="curve">
<path id="Vector 6" d="M-0.000244141 -0.85701H1440V83.143C1440 83.143 1415.31 78.4229 1400.17 73.143C1367.9 61.8973 1356.92 39.8617 1324.48 29.143C1240.8 1.49354 1192.55 96.0455 1105.39 83.143C1061.34 76.622 1041.69 52.9147 997.842 45.143C874.286 23.2435 815.298 159.147 691.12 141.143C639.998 133.731 617.147 103.073 565.643 99.143C466.655 91.5905 430.445 218.075 332.614 201.143C281.195 192.244 264.629 149.45 213.112 141.143C124.552 126.863 -0.000244141 227.143 -0.000244141 227.143V-0.85701Z" fill="#171742"/>
</g>
</svg>
