<svg width="60" height="74" viewBox="0 0 60 74" fill="none" xmlns="http://www.w3.org/2000/svg">
<path d="M39.2308 13.8462C43.0543 13.8462 46.1538 10.7466 46.1538 6.92308C46.1538 3.09952 43.0543 0 39.2308 0C35.4072 0 32.3077 3.09952 32.3077 6.92308C32.3077 10.7466 35.4072 13.8462 39.2308 13.8462ZM16.3976 45.7889L14.263 50.7678H4.61538C2.06683 50.7678 0 52.8346 0 55.3832C0 57.9317 2.06683 59.9986 4.61538 59.9986H15.7861C18.5625 59.9986 21.062 58.3486 22.1481 55.8029L23.4159 52.8433L21.8769 51.9346C19.3788 50.4591 17.5413 48.2755 16.3976 45.7889ZM55.3846 32.3062H49.0341L45.2755 24.626C43.4726 20.9409 40.1625 18.2466 36.3649 17.2788L26.113 14.2298C22.0312 13.249 17.7808 14.1505 14.4534 16.7019L8.73173 21.088C6.70817 22.6385 6.32452 25.5346 7.87788 27.5582C9.43125 29.5817 12.326 29.9611 14.3481 28.412L20.0726 24.026C21.1788 23.1764 22.588 22.8721 23.7173 23.1404L25.8375 23.7707L20.4346 36.375C18.6144 40.6269 20.2457 45.6072 24.2279 47.9582L36.4846 55.1942L32.5226 67.8476C31.7611 70.2793 33.1154 72.8683 35.5471 73.6298C36.0072 73.774 36.4716 73.8433 36.9288 73.8433C38.8918 73.8433 40.712 72.5784 41.3308 70.6053L45.8942 56.0293C46.7466 53.0336 45.4774 49.8159 42.7731 48.1846L33.9404 42.9721L38.4563 31.6817L41.3798 37.6572C42.5336 40.0139 44.974 41.5356 47.5976 41.5356H55.3846C57.9332 41.5356 60 39.4687 60 36.9202C60 34.3716 57.9332 32.3062 55.3846 32.3062Z" fill="white"/>
</svg>
