<svg width="300" height="300" viewBox="0 0 300 300" fill="none" xmlns="http://www.w3.org/2000/svg">
<ellipse cx="148" cy="138" rx="93" ry="95" fill="white"/>
<ellipse cx="148.465" cy="143.7" rx="88.815" ry="85.5" fill="#E8EFF7"/>
<path d="M239 138C239 189.403 198.218 231 148 231C97.782 231 57 189.403 57 138C57 86.5972 97.782 45 148 45C198.218 45 239 86.5972 239 138Z" stroke="black" stroke-width="4"/>
<circle cx="194" cy="94" r="14" fill="#474747" stroke="black" stroke-width="2"/>
<path d="M205 97.5C206.48 95.6624 207.5 92 207.5 92V97.5L205 103L199.5 107.5L192 101.5C192 101.5 201.668 101.637 205 97.5Z" fill="#353535"/>
<circle cx="194" cy="94" r="14" stroke="black" stroke-width="2"/>
<circle cx="100" cy="94" r="14" fill="#474747" stroke="black" stroke-width="2"/>
<path d="M89 97.5C87.5202 95.6624 86.5 92 86.5 92V97.5L89 103L94.5 107.5L102 101.5C102 101.5 92.3316 101.637 89 97.5Z" fill="#353535"/>
<circle cx="100" cy="94" r="14" stroke="black" stroke-width="2"/>
<path d="M145.344 87.1433C76.2172 90.7659 81.5759 149.762 81.5759 149.762C81.5759 149.762 77.1184 160.917 76.389 168.65C75.3759 179.391 76.0891 189.515 81.5759 198.909C94.4997 221.036 145.344 221 145.344 221C145.344 221 185.796 223.828 205.889 209C210.594 205.528 213.578 203.658 216.874 198.909C223.023 190.049 224.302 179.155 222.389 168.65C220.93 160.638 215.823 149.762 215.823 149.762C215.823 149.762 214.471 83.5208 145.344 87.1433Z" fill="white" stroke="black" stroke-width="4"/>
<path d="M149.5 214.5C119.966 214.569 81 197 81 197C81 197 85.3135 201.568 90.5 206.342C103.183 218.018 117.788 216.694 136.5 218.5C156.363 220.417 167.122 222.642 186 217.119C199.538 213.159 207.7 210.347 215 200C219.389 193.779 221.593 187.5 221.593 187.5C221.593 187.5 192.907 214.398 149.5 214.5Z" fill="#BABABA"/>
<path d="M145.344 87.1433C76.2172 90.7659 81.5759 149.762 81.5759 149.762C81.5759 149.762 77.1184 160.917 76.389 168.65C75.3759 179.391 76.0891 189.515 81.5759 198.909C94.4997 221.036 145.344 221 145.344 221C145.344 221 185.796 223.828 205.889 209C210.594 205.528 213.578 203.658 216.874 198.909C223.023 190.049 224.302 179.155 222.389 168.65C220.93 160.638 215.823 149.762 215.823 149.762C215.823 149.762 214.471 83.5208 145.344 87.1433Z" stroke="black" stroke-width="4"/>
<path d="M145.686 180.215C147.245 181.758 149.755 181.758 151.314 180.215L156.742 174.843C159.281 172.329 157.501 168 153.928 168H143.072C139.499 168 137.719 172.329 140.258 174.843L145.686 180.215Z" fill="#8D8D8D"/>
<path d="M146.39 179.504C147.559 180.661 149.441 180.661 150.61 179.504L156.038 174.132C157.943 172.247 156.608 169 153.928 169H143.072C140.392 169 139.057 172.247 140.962 174.132L146.39 179.504Z" stroke="black" stroke-width="2"/>
<path d="M148.5 171.5C145.5 171.5 141.5 170 141.5 170L140.5 173L148 180.5L157 173L155.5 169.5C155.5 169.5 151.5 171.5 148.5 171.5Z" fill="black"/>
<path d="M148.5 181V187.355M148.5 187.355C148.5 187.355 145.182 191.642 142.12 191.978C138.49 192.376 134 187.355 134 187.355M148.5 187.355C148.5 187.355 151.818 191.642 154.88 191.978C158.51 192.376 163 187.355 163 187.355" stroke="black" stroke-width="2"/>
<ellipse cx="117.619" cy="150.701" rx="15.4394" ry="23" transform="rotate(33.7675 117.619 150.701)" fill="#474747"/>
<ellipse rx="15.4394" ry="23" transform="matrix(-0.8313 0.555823 0.555823 0.8313 178.619 150.701)" fill="#474747"/>
<ellipse cx="175" cy="145.5" rx="10" ry="12.5" fill="black"/>
<circle cx="172.5" cy="143.5" r="3.5" fill="white"/>
<ellipse cx="121" cy="145.5" rx="10" ry="12.5" fill="black"/>
<circle cx="123.5" cy="143.5" r="3.5" fill="white"/>
<rect x="84.5" y="216.5" width="128" height="17" rx="3.5" fill="white" stroke="black" stroke-width="3"/>
</svg>
