<svg width="100" height="89" viewBox="0 0 100 89" fill="none" xmlns="http://www.w3.org/2000/svg">
<path d="M47.7925 43.4909C49.0077 44.7756 50.9868 44.7756 52.2193 43.4909L71.1245 23.6656C76.6104 17.9021 76.2979 8.35398 70.1524 3.04177C64.8055 -1.59339 56.8371 -0.760106 51.9416 4.3785L49.9972 6.40964L48.0703 4.39586C43.1747 -0.760106 35.2064 -1.59339 29.8595 3.04177C23.7313 8.35398 23.4015 17.9021 28.8873 23.6656L47.7925 43.4909ZM98.1369 56.9624C96.0884 55.1049 92.8942 55.2264 90.7415 56.9624L74.7007 69.7916C72.739 71.3713 70.2913 72.222 67.7567 72.222H47.2196C45.6919 72.222 44.442 70.9721 44.442 69.4444C44.442 67.9167 45.6919 66.6667 47.2196 66.6667H60.8126C63.5729 66.6667 66.1422 64.7745 66.5935 62.0489C67.1664 58.5769 64.493 55.5562 61.1077 55.5562H33.3315C28.6443 55.5562 24.1133 57.1707 20.4676 60.122L12.3951 66.6667H2.77762C1.24993 66.6667 0 67.9167 0 69.4444V86.1101C0 87.6378 1.24993 88.8877 2.77762 88.8877H64.7186C67.2359 88.8877 69.6836 88.0371 71.6627 86.4573L97.9113 65.4515C100.55 63.3509 100.758 59.3234 98.1369 56.9624Z" fill="url(#paint0_linear_71_59)"/>
<defs>
<linearGradient id="paint0_linear_71_59" x1="33" y1="44" x2="52.8254" y2="96.735" gradientUnits="userSpaceOnUse">
<stop stop-color="#FF0000"/>
<stop offset="0.154167" stop-color="#FFC700"/>
<stop offset="0.310417" stop-color="#FFF500"/>
<stop offset="0.466667" stop-color="#00FF29"/>
<stop offset="0.617708" stop-color="#00FFF0"/>
<stop offset="0.779167" stop-color="#0057FF"/>
<stop offset="0.925" stop-color="#EB00FF"/>
</linearGradient>
</defs>
</svg>
